# xmcd
#
# Track frame offsets:
#  150
#  10792
#  24525
#  38182
#  49847
#  61092
#  71505
#  82430
#  94310
#  105832
#  120417
#  130952
#
# Disc length: 1942 seconds
#
# Revision: 2
# Processed by: cddbd v1.4PL0 Copyright (c) Steve Scherf et al.
# Submitted via: AltoMP3_Maker 3.0
#
DISCID=9907940c
DTITLE=George Jones - My Best To You
DYEAR=1900
DGENRE=
TTITLE0=Sometimes You Just Can't Win
TTITLE1=Loving You Could Never Be Better
TTITLE2=A Good Year For The Roses
TTITLE3=What My Woman Can't Do
TTITLE4=I'll Share My World With You
TTITLE5=Nothing Ever Hurt Me(Half As Bad As Losing You)
TTITLE6=Tell Me My Lying Eyes Are Wrong
TTITLE7=Once You've Had The Best
TTITLE8=A Picture Of Me (Without You)
TTITLE9=Memories Of Us
TTITLE10=Her Name Is
TTITLE11=He Stopped Loving Her Today
EXTD=
EXTT0=
EXTT1=
EXTT2=
EXTT3=
EXTT4=
EXTT5=
EXTT6=
EXTT7=
EXTT8=
EXTT9=
EXTT10=
EXTT11=
PLAYORDER=
